HIERARCHY
ROOT pelvis
{
  OFFSET 0 100 0
  CHANNELS 6 Xposition Yposition Zposition Zrotation Xrotation Yrotation
  JOINT pelvis_right_femur
  {
    OFFSET -10.78128 -3.44521 -0.5502486
    CHANNELS 3 Zrotation Xrotation Yrotation
    JOINT right_femur_tibia
    {
      OFFSET -0.8047443 -44.0398 -0.1307829
      CHANNELS 3 Zrotation Xrotation Yrotation
      JOINT right_tibia_foot
      {
        OFFSET 3.006224 -47.83518 -5
        CHANNELS 3 Zrotation Xrotation Yrotation
        End Site
        {
          OFFSET 0 -5 15
        }
      }
    }
  }
  JOINT pelvis_left_femur
  {
    OFFSET 10.78128 -3.44521 -0.5502486
    CHANNELS 3 Zrotation Xrotation Yrotation
    JOINT left_femur_tibia
    {
      OFFSET 0.8047443 -44.0398 -0.1307829
      CHANNELS 3 Zrotation Xrotation Yrotation
      JOINT left_tibia_foot
      {
        OFFSET -4.370144 -48.10324 -4.275266
        CHANNELS 3 Zrotation Xrotation Yrotation
        End Site
        {
          OFFSET 0 -5 15
        }
      }
    }
  }
  JOINT pelvis_spine1
  {
    OFFSET 0 6.468898 -3.129235
    CHANNELS 3 Zrotation Xrotation Yrotation
    JOINT spine1
    {
      OFFSET 0 23.15396 4.99043
      CHANNELS 3 Zrotation Xrotation Yrotation
      JOINT spine2
      {
        OFFSET 0 20.79997 -5.064912
        CHANNELS 3 Zrotation Xrotation Yrotation
        JOINT neck
        {
          OFFSET 0 14.38658 9.616178
          CHANNELS 3 Zrotation Xrotation Yrotation
          End Site
          {
            OFFSET 0 20 0
          }
        }
      }
      JOINT right_manubrium
      {
        OFFSET -5.722621 16.35077 3.967754
        CHANNELS 3 Zrotation Xrotation Yrotation
        JOINT right_clavicle
        {
          OFFSET -13.16364 1.694482 -4.693211
          CHANNELS 3 Zrotation Xrotation Yrotation
          JOINT right_humerus
          {
            OFFSET -28.5034 -0.3100689 -2.792744
            CHANNELS 3 Zrotation Xrotation Yrotation
            JOINT right_radius
            {
              OFFSET -25.15693 0.02248979 -1.271978
              CHANNELS 3 Zrotation Xrotation Yrotation
              End Site
              {
                OFFSET -15 0 0
              }
            }
          }
        }
      }
      JOINT left_manubrium
      {
        OFFSET 5.722621 16.35077 3.967754
        CHANNELS 3 Zrotation Xrotation Yrotation
        JOINT left_clavicle
        {
          OFFSET 13.16364 1.694482 -4.693211
          CHANNELS 3 Zrotation Xrotation Yrotation
          JOINT left_humerus
          {
            OFFSET 29.39168 -1.063119 -2.237045
            CHANNELS 3 Zrotation Xrotation Yrotation
            JOINT left_radius
            {
              OFFSET 24.59957 -0.9528479 0.9047498
              CHANNELS 3 Zrotation Xrotation Yrotation
              End Site
              {
                OFFSET 15 -0 -0
              }
            }
          }
        }
      }
    }
  }
}
MOTION
Frames: 11
Frame Time: 0.0416666666667
0 103.5113 0 1.840703 -0.9757151 -0.2598912 2.23846 -10.87972 9.197023 1.335466e-05 34.76499 -8.369337e-06 -5.677451 -19.17169 -3.199896 -7.761073 9.480329 -23.86793 3.760028e-06 5.584389 9.299686e-06 9.25053 -16.18179 28.59979 -4.796326 -5.159911 5.236083 2.439889 9.159018 -7.869341 1.146695 22.58993 6.803039 3.285003 -23.59753 8.808743 6.574523 -20.13705 11.61126 85.44245 36.64608 -19.29013 2.735128e-06 5.232541e-06 16.46871 -7.258851 8.356391 4.162158 5.348526 -19.7211 -1.295406 -94.79577 29.80766 23.26672 -3.942497e-06 3.289344e-06 -16.45886 4.20105 18.42893 8.794001
0.2883457 103.7012 1.416315 1.543226 -0.9691209 -0.3699599 2.616032 -13.40669 9.123563 1.201108e-05 37.00696 -8.772527e-06 -5.723752 -17.99619 -3.369519 -7.55729 10.51313 -23.71526 2.946659e-06 5.491498 6.191347e-06 8.629895 -16.90656 27.49177 -4.514952 -4.637208 4.904567 2.429141 9.195426 -7.989758 1.108216 22.40569 6.951933 3.287411 -23.75738 8.93973 6.614267 -20.02411 11.64464 86.00318 36.43489 -19.685 1.89679e-06 4.578184e-06 16.48857 -7.133692 8.570351 4.180105 5.267861 -19.70314 -1.546348 -94.74615 29.92424 23.22869 -3.672952e-06 2.462502e-06 -16.72329 3.913691 17.95328 9.225426
0.5961032 103.8783 2.910165 1.169293 -0.7669386 -0.3180797 3.155364 -16.31514 8.914994 1.08018e-05 37.73404 -8.817994e-06 -5.849279 -16.5429 -3.39457 -7.27468 11.46381 -23.38458 2.910492e-06 5.439392 5.334736e-06 7.783093 -17.75329 26.19367 -4.153943 -4.015472 4.541839 2.472794 9.193513 -8.101033 1.04532 22.16084 7.172858 3.369815 -24.03644 9.065066 6.612366 -19.85846 11.69013 86.50261 36.23988 -20.10043 8.958152e-07 3.992499e-06 16.32404 -7.077897 8.749543 4.292448 5.312452 -19.78112 -1.792852 -94.64099 29.95809 23.06062 -3.159855e-06 1.662919e-06 -17.25087 3.717948 17.41926 9.552001
0.9120281 103.9639 4.522253 0.7764401 -0.3581873 -0.1456202 3.792893 -19.32966 8.598348 9.905543e-06 36.59954 -8.37959e-06 -5.992608 -14.87258 -3.228726 -6.975968 12.23643 -22.91222 3.741166e-06 5.408908 7.547515e-06 6.829106 -18.67818 24.90573 -3.768861 -3.379481 4.206997 2.571573 9.164886 -8.187434 0.9598056 21.8623 7.46774 3.557061 -24.41993 9.170053 6.578975 -19.64861 11.75543 86.84241 36.0904 -20.51806 -2.992908e-07 3.566947e-06 15.95437 -7.135236 8.842346 4.499673 5.517916 -19.97686 -2.005487 -94.46316 29.87125 22.73863 -2.355617e-06 9.104754e-07 -18.06704 3.656581 16.88111 9.710203
1.222546 103.8996 6.340525 0.3928199 0.2113661 0.108483 4.467291 -22.32123 8.193104 8.930476e-06 33.88902 -7.077118e-06 -6.081952 -12.96626 -2.932992 -6.690782 12.94951 -22.29641 4.572394e-06 5.56111 1.182264e-05 5.730008 -19.65681 23.64395 -3.383443 -2.785139 3.914179 2.703243 9.103702 -8.252186 0.8772893 21.54315 7.812489 3.836986 -24.85893 9.259894 6.500732 -19.36252 11.81577 87.15942 35.92875 -21.01743 -1.687034e-06 3.17728e-06 15.36943 -7.359543 8.860762 4.782611 5.874266 -20.28146 -2.176282 -94.25182 29.68704 22.21727 -1.274807e-06 1.326732e-07 -19.1712 3.678368 16.32636 9.767495
1.516738 103.6417 8.387031 0.03247083 0.8817667 0.3976777 5.137583 -25.01372 7.767451 8.367046e-06 29.96092 -5.525598e-06 -6.163611 -11.05769 -2.530474 -6.428235 13.45406 -21.61583 5.63226e-06 5.826996 1.798705e-05 4.626773 -20.55234 22.51084 -3.022806 -2.257637 3.680429 2.862798 9.022937 -8.284759 0.7947931 21.20133 8.168996 4.171789 -25.31555 9.318607 6.405931 -19.04821 11.87454 87.26865 35.81496 -21.45151 -3.085545e-06 2.927084e-06 14.66561 -7.653388 8.805885 5.103893 6.31787 -20.62918 -2.289964 -93.96754 29.4214 21.60887 -8.262632e-08 -5.785925e-07 -20.36084 3.781002 15.80772 9.705545
1.785495 103.2068 10.75826 -0.32991 1.637659 0.7025418 5.764915 -27.37447 7.316162 7.725634e-06 25.58217 -3.46096e-06 -6.260774 -9.265901 -2.108354 -6.153813 14.0022 -20.87329 6.452899e-06 6.410116 2.362401e-05 3.402793 -21.23813 21.28145 -2.661482 -1.857795 3.469383 3.031063 8.884572 -8.323889 0.7298029 20.86359 8.484971 4.497078 -25.76537 9.354833 6.287775 -18.67158 11.88371 87.406 35.72839 -21.94176 -4.198177e-06 2.6557e-06 13.8551 -7.95601 8.760578 5.39849 6.755494 -20.97948 -2.3432 -93.62786 29.15257 20.92053 9.646027e-07 -1.070701e-06 -21.58801 3.908826 15.30863 9.610144
2.024425 102.6397 13.49378 -0.6779462 2.307753 1.017402 6.278035 -29.16888 6.876173 7.068327e-06 21.6722 -1.548593e-06 -6.427305 -7.846889 -1.769398 -5.86294 14.47662 -20.1075 7.065433e-06 7.386771 2.72259e-05 2.139749 -21.5702 19.97981 -2.313579 -1.556627 3.2689 3.174371 8.70674 -8.365086 0.6850283 20.58933 8.704054 4.738292 -26.11018 9.354974 6.155664 -18.26451 11.83747 87.56084 35.66968 -22.37969 -4.740482e-06 2.38899e-06 13.04298 -8.204651 8.772143 5.62773 7.07823 -21.26051 -2.361143 -93.21412 28.95221 20.21634 1.635729e-06 -1.233592e-06 -22.63641 4.009947 14.84949 9.536933
2.245311 102.0696 16.7327 -1.0618 2.888731 1.366497 6.682546 -30.18335 6.477205 5.614784e-06 19.15277 5.042853e-07 -6.678321 -6.759526 -1.573718 -5.515943 14.96214 -19.30465 6.157114e-06 9.085691 2.641899e-05 0.6873196 -21.31534 18.37953 -1.932743 -1.408242 3.057453 3.272212 8.479445 -8.429499 0.6770991 20.36576 8.776046 4.844643 -26.36596 9.318597 6.024116 -17.83576 11.70645 87.90095 35.63614 -22.78091 -4.459762e-06 1.812865e-06 12.32315 -8.362784 8.956055 5.782319 7.165095 -21.37963 -2.340136 -92.85779 28.86159 19.71182 1.691571e-06 -1.012056e-06 -23.27482 3.977754 14.37489 9.641538
2.464746 101.659 20.52613 -1.463865 3.27644 1.764508 6.973244 -30.22466 6.167982 3.717831e-06 18.49483 1.977667e-06 -7.098407 -5.986055 -1.519206 -5.135547 15.26697 -18.5122 4.468137e-06 11.76935 2.183958e-05 -0.7658842 -20.3181 16.62863 -1.541855 -1.383091 2.841688 3.321468 8.270049 -8.503224 0.6825152 20.19309 8.699728 4.814081 -26.50962 9.218131 5.950299 -17.40629 11.53078 88.23274 35.71635 -23.02269 -3.185517e-06 1.061892e-06 11.67989 -8.368625 9.30299 5.84974 6.947092 -21.30734 -2.310332 -92.46652 28.86744 19.48448 9.94123e-07 -3.389393e-07 -23.31212 3.843955 13.91873 9.87569
2.696401 101.544 24.86137 -1.879035 3.390928 2.202806 7.261539 -29.41413 6.014912 1.618885e-06 19.28109 2.708297e-06 -7.672553 -5.540358 -1.612178 -4.70675 15.21796 -17.71557 3.017186e-06 15.68416 1.495428e-05 -2.179947 -18.64603 14.87228 -1.112154 -1.385261 2.647374 3.325539 8.129704 -8.555897 0.7064433 20.07738 8.487237 4.663984 -26.52233 9.055671 5.9166 -17.00923 11.35608 88.50643 35.81947 -23.0799 -1.246249e-06 2.81064e-07 11.14806 -8.230571 9.775049 5.824247 6.47184 -21.07401 -2.300695 -92.09612 28.93506 19.54505 -2.590295e-07 6.109647e-07 -22.80412 3.611335 13.48175 10.22492
